<?xml version="1.0" standalone="no"?><!DOCTYPE svg PUBLIC "-//W3C//DTD SVG 1.1//EN" "http://www.w3.org/Graphics/SVG/1.1/DTD/svg11.dtd"><svg t="1756574506713" class="icon" viewBox="0 0 3188 1024" version="1.1" xmlns="http://www.w3.org/2000/svg" p-id="6593" xmlns:xlink="http://www.w3.org/1999/xlink" width="622.65625" height="200"><path d="M256.283814 227.334812s231.875831-101.605322 403.583148 56.762749c0 0 61.587583 63.574279 81.454546 56.762749 0 0 13.906874-15.89357 0-61.871396 0 0-56.762749-170.288248-286.368071-210.589801 0 0-247.769401-56.762749-454.101996 203.778271 0 0 123.45898-135.379157 234.430155-141.906874 0 0-464.035477 336.886918-72.940133 830.439024C128.567627 919.840355-176.815965 502.350333 256.283814 227.334812zM164.32816 964.399113l-3.405765-3.405765zM62.722838 160.922395l3.689579-2.838138z" fill="#B40000" p-id="6594"></path><path d="M799.503326 256.567627s99.334812 232.443459-60.168514 403.299335c0 0-63.574279 61.303769-56.76275 81.170732 0 0 16.177384 13.906874 61.871397 0 0 0 170.288248-54.492239 212.008869-283.813747 0 0 56.762749-247.769401-201.223947-454.101996 0 0 134.527716 124.026608 141.906874 235.281597 0 0-334.332594-466.022173-829.871397-77.19734 42.004435-36.044346 459.494457-339.157428 732.239468 95.361419zM870.456763 73.791574l-2.838138-3.405765z" fill="#B40000" p-id="6595"></path><path d="M789.569845 903.379157S1256.727273 571.033259 870.456763 73.791574c32.070953 42.855876 333.764967 461.764967-101.889136 732.523282 0 0-233.011086 99.334812-403.015521-61.587583 0 0-61.303769-64.141907-81.170731-56.76275 0 0-13.62306 15.89357 0 61.871397 0 0 53.924612 170.288248 283.813747 213.144124 0 0 247.201774 58.749446 456.088692-198.669623 0.851441-1.419069-123.742794 132.824834-234.713969 139.068736z" fill="#B40000" p-id="6596"></path><path d="M223.645233 767.432373s-99.618625-233.011086 61.587583-403.299335c0 0 64.141907-61.019956 56.762749-80.886918 0 0-15.89357-13.906874-61.587583 0 0 0-170.288248 53.924612-213.427938 283.813747 0 0-58.465632 247.485588 198.669623 456.372506 0 0-134.243902-124.594235-140.487804-235.849224 0 0 332.629712 467.157428 829.587583 80.603104-41.436807 32.922395-460.345898 335.467849-731.104213-100.75388zM959.858093 865.915743l-3.689579 2.838137z" fill="#B40000" p-id="6597"></path><path d="M470.279379 725.144124s4.54102-11.35255 24.124169-9.08204c0 0 235.56541 18.447894 285.516629-207.184035 0 0-26.110865 47.964523-56.762749 49.099778 0 0-21.569845-2.27051-20.43459-40.017738 0 0 9.08204-228.75388-195.831485-268.487805 0 0 49.95122 30.651885 49.951219 54.492239 0 0 0 22.988914-31.78714 20.718404 0 0-213.995565-30.935698-281.259423 204.913525 0 0 35.476718-71.804878 69.534368-50.235033a97.915743 97.915743 0 0 1 6.81153 61.587583s-5.676275 200.372506 162.909091 228.75388c1.135255 0-28.665188-34.05765-12.771619-44.558758z" fill="#B40000" p-id="6598"></path><path d="M1230.332594 286.368071v519.946785h131.121951v-210.873614c0-18.447894 13.62306-18.447894 13.62306-18.447894h261.676275v-135.662971h-255.432372a19.015521 19.015521 0 0 1-17.028825-11.35255v-68.399113c0-20.43459 13.62306-15.89357 13.62306-15.89357h260.824833v-133.392461l-340.576496-2.27051a66.128603 66.128603 0 0 0-67.831486 76.345898zM1847.627494 210.022173h-124.026607v598.847007h403.299335v-132.257207H1847.627494V210.022173zM2481.383592 674.625277h-146.731707V216.266075h-67.263858c-54.776053 0-63.006652 59.033259-63.006652 59.03326v462.332594c0 55.059867 65.277162 71.521064 65.277162 71.521064h340.576496v-596.008869l-130.27051 1.986696zM3188.079823 212.292683h-152.691796l-93.658537 170.855876-93.658537-166.882484h-152.691796l168.86918 297.436807-166.882483 293.179601h152.691796l93.658536-158.935698 93.658537 158.935698h150.7051l-168.86918-293.179601 168.86918-301.410199z" p-id="6599"></path></svg>