<?xml version="1.0" standalone="no"?><!DOCTYPE svg PUBLIC "-//W3C//DTD SVG 1.1//EN" "http://www.w3.org/Graphics/SVG/1.1/DTD/svg11.dtd"><svg t="1756574805074" class="icon" viewBox="0 0 1024 1024" version="1.1" xmlns="http://www.w3.org/2000/svg" p-id="6758" xmlns:xlink="http://www.w3.org/1999/xlink" width="200" height="200"><path d="M442.256 129.568l3.68 0.8 3.152 0.8 3.616 1.12 4.8 1.6 190.88 58.64 80.416 24.4 34.368 10.176c34.416 7.504 49.6 23.376 56.32 35.936l1.488 3.056 0.64 1.472 1.04 2.768 0.784 2.544 0.56 2.256 0.512 2.768 0.16 1.376 0.096 1.504 37.76 160.624 13.024 54.144 11.664 47.248 5.12 19.872 0.864 3.264c9.248 38.544-6.496 63.296-17.68 76.32l-3.776 4.192-4.592 4.8-0.976 1.168a2.88 2.88 0 0 0-0.256 0.432l-0.096 0.32L622.88 877.92c-17.968 17.6-39.424 19.248-54.192 17.536l-4.032-0.56-3.6-0.672-4.528-1.104-3.28-0.976-3.104-1.072-159.728-48.112-116.48-35.648-20.64-6.56c-24.144-7.28-36.192-22.464-42.16-34.848l-1.696-3.792a66.944 66.944 0 0 1-0.704-1.808l-1.152-3.36-0.864-3.024-0.608-2.544-0.72-4.288-75.28-325.424c-6.56-25.712 2.592-51.44 21.44-65.344l2.624-1.84 208.288-189.552 24.288-21.696c17.712-17.376 41.168-16.48 55.52-13.68z m-14.128 62.512l-5.2 4.624 0.528 0.512c23.2 23.152 87.6 92.736 103.456 109.904l1.936 2.096 1.632 1.76s17.12 20.128-3.424 40.256c-23.952 20.128-184.784 167.744-184.784 167.744l-0.048 0.048-0.704 0.704c-3.936 3.76-23.2 19.008-50.576-10.816a1556.944 1556.944 0 0 0-36.4-37.792l-6.064-6.096a6219.648 6219.648 0 0 0-55.36-54.928l10.96 47.376 100.544 101.76-45.392 136.656 8.512 36.8a64 64 0 0 1 1.088 5.968l0.304 2.896-0.24-3.168 0.416 0.256 0.88 0.336 2 0.64 8.48-29.424c22.816-71.568 36.512-114.064 41.072-127.472 6.848-20.128 34.224-6.72 34.224-6.72l239.52 70.448c30.8 10.08 20.544 33.552 20.544 33.552l-0.256 1.04-37.04 150.544 0.672-0.64 31.664-29.296 39.184-141.76 148.752-32.112 19.008-17.568 1.76-2 6.032-6.336c0.848-0.912 1.52-1.712 2.128-2.48l0.848-1.12c0.544-0.768 1.008-1.504 1.44-2.24-8.352 1.552-20.432 3.84-36.256 6.816-4.048 0.8-8.16 1.6-12.256 2.432l-8.208 1.68a4238 4238 0 0 0-87.088 18.928l-1.456 0.32-0.368 0.096c-0.128 0.016-34.336 10.08-41.184-16.752-4.656-13.68-17.744-66.624-30.656-120.432l-2.672-11.136-2.128-8.928a20459.52 20459.52 0 0 1-26.144-111.104s-10.272-26.848 20.528-30.192c7.344 0 30.912-4.736 55.456-10.16l8.192-1.824c30.048-6.72 58.992-13.808 58.992-13.808l34.32-9.696-0.432-0.16-3.008-0.912a89.44 89.44 0 0 0-1.856-0.496l-6.512-1.552-19.296-5.6-19.424-5.856 9.92 3.088-147.152 33.552-104.176-110.464-31.04-9.552-2.688-0.88-2.128-0.8 0.32 0.16-0.528-0.128a27.12 27.12 0 0 0-2.368-0.48l-0.8-0.112z m126.304 159.152l68.448 275.088-277.184-80.512 208.736-194.56z" fill="#222222" p-id="6759"></path></svg>